<svg width="32" height="32" viewBox="0 0 32 32" fill="none" xmlns="http://www.w3.org/2000/svg">
<path d="M12.1794 27.6978V23.6208C12.1794 22.5801 13.0292 21.7364 14.0776 21.7364H17.9098C18.4133 21.7364 18.8961 21.9349 19.2521 22.2883C19.608 22.6417 19.808 23.121 19.808 23.6208V27.6978C19.8048 28.1305 19.9758 28.5465 20.2828 28.8536C20.5899 29.1606 21.0077 29.3333 21.4436 29.3333H24.0581C25.2792 29.3365 26.4513 28.8571 27.3159 28.0011C28.1805 27.145 28.6663 25.9826 28.6663 24.7704V13.1558C28.6663 12.1766 28.2291 11.2478 27.4725 10.6195L18.5784 3.56782C17.0312 2.33141 14.8145 2.37133 13.3135 3.66263L4.62236 10.6195C3.83 11.2293 3.35641 12.1608 3.33301 13.1558V24.7586C3.33301 27.2851 5.39618 29.3333 7.94124 29.3333H10.4961C11.4013 29.3333 12.137 28.6083 12.1436 27.7096L12.1794 27.6978Z" fill="#666666"/>
</svg>
