<svg width="2165" height="500" viewBox="0 0 2165 500" fill="none" xmlns="http://www.w3.org/2000/svg">
<rect width="500" height="500" rx="50" fill="#05A833"/>
<path d="M111 388.083C111 344.333 137.979 309.917 185.083 300.583C220.375 293.583 256.833 271.417 271.417 256.833M242.25 373.5C216.643 373.578 191.941 364.028 173.045 346.746C154.149 329.463 142.438 305.71 140.236 280.197C138.033 254.685 145.5 229.276 161.154 209.011C176.809 188.746 199.508 175.104 224.75 170.792C307.875 154.75 329.75 147.167 358.917 111C373.5 140.167 388.083 171.958 388.083 227.667C388.083 307.875 318.375 373.5 242.25 373.5Z" stroke="white" stroke-width="28" stroke-linecap="round" stroke-linejoin="round"/>
<path d="M708.316 220.996C708.316 229.284 706.318 237.054 702.322 244.306C698.474 251.558 692.332 257.404 683.896 261.844C675.608 266.284 665.1 268.504 652.372 268.504H626.398V328H595.318V173.044H652.372C664.36 173.044 674.572 175.116 683.008 179.26C691.444 183.404 697.734 189.102 701.878 196.354C706.17 203.606 708.316 211.82 708.316 220.996ZM651.04 243.418C659.624 243.418 665.988 241.494 670.132 237.646C674.276 233.65 676.348 228.1 676.348 220.996C676.348 205.9 667.912 198.352 651.04 198.352H626.398V243.418H651.04ZM761.462 163.72V328H730.382V163.72H761.462ZM784.178 266.062C784.178 253.63 786.62 242.604 791.504 232.984C796.536 223.364 803.27 215.964 811.706 210.784C820.29 205.604 829.836 203.014 840.344 203.014C849.52 203.014 857.512 204.864 864.32 208.564C871.276 212.264 876.826 216.926 880.97 222.55V205.012H912.272V328H880.97V310.018C876.974 315.79 871.424 320.6 864.32 324.448C857.364 328.148 849.298 329.998 840.122 329.998C829.762 329.998 820.29 327.334 811.706 322.006C803.27 316.678 796.536 309.204 791.504 299.584C786.62 289.816 784.178 278.642 784.178 266.062ZM880.97 266.506C880.97 258.958 879.49 252.52 876.53 247.192C873.57 241.716 869.574 237.572 864.542 234.76C859.51 231.8 854.108 230.32 848.336 230.32C842.564 230.32 837.236 231.726 832.352 234.538C827.468 237.35 823.472 241.494 820.364 246.97C817.404 252.298 815.924 258.662 815.924 266.062C815.924 273.462 817.404 279.974 820.364 285.598C823.472 291.074 827.468 295.292 832.352 298.252C837.384 301.212 842.712 302.692 848.336 302.692C854.108 302.692 859.51 301.286 864.542 298.474C869.574 295.514 873.57 291.37 876.53 286.042C879.49 280.566 880.97 274.054 880.97 266.506ZM1010.78 203.236C1025.43 203.236 1037.27 207.898 1046.3 217.222C1055.33 226.398 1059.84 239.274 1059.84 255.85V328H1028.76V260.068C1028.76 250.3 1026.32 242.826 1021.44 237.646C1016.55 232.318 1009.89 229.654 1001.46 229.654C992.873 229.654 986.065 232.318 981.033 237.646C976.149 242.826 973.707 250.3 973.707 260.068V328H942.627V205.012H973.707V220.33C977.851 215.002 983.105 210.858 989.469 207.898C995.981 204.79 1003.08 203.236 1010.78 203.236ZM1125.58 230.542V290.038C1125.58 294.182 1126.55 297.216 1128.47 299.14C1130.54 300.916 1133.95 301.804 1138.68 301.804H1153.11V328H1133.58C1107.38 328 1094.28 315.272 1094.28 289.816V230.542H1079.63V205.012H1094.28V174.598H1125.58V205.012H1153.11V230.542H1125.58ZM1851.63 173.044V328H1820.55V262.066H1754.18V328H1723.1V173.044H1754.18V236.758H1820.55V173.044H1851.63ZM1998.33 205.012V328H1967.03V312.46C1963.03 317.788 1957.78 322.006 1951.27 325.114C1944.9 328.074 1937.95 329.554 1930.4 329.554C1920.78 329.554 1912.27 327.556 1904.87 323.56C1897.47 319.416 1891.62 313.422 1887.33 305.578C1883.19 297.586 1881.11 288.114 1881.11 277.162V205.012H1912.19V272.722C1912.19 282.49 1914.64 290.038 1919.52 295.366C1924.4 300.546 1931.06 303.136 1939.5 303.136C1948.08 303.136 1954.82 300.546 1959.7 295.366C1964.59 290.038 1967.03 282.49 1967.03 272.722V205.012H1998.33ZM2060.08 222.994C2064.07 217.074 2069.55 212.264 2076.5 208.564C2083.61 204.864 2091.67 203.014 2100.7 203.014C2111.21 203.014 2120.68 205.604 2129.12 210.784C2137.7 215.964 2144.44 223.364 2149.32 232.984C2154.35 242.456 2156.87 253.482 2156.87 266.062C2156.87 278.642 2154.35 289.816 2149.32 299.584C2144.44 309.204 2137.7 316.678 2129.12 322.006C2120.68 327.334 2111.21 329.998 2100.7 329.998C2091.53 329.998 2083.46 328.222 2076.5 324.67C2069.7 320.97 2064.22 316.234 2060.08 310.462V328H2029V163.72H2060.08V222.994ZM2125.12 266.062C2125.12 258.662 2123.57 252.298 2120.46 246.97C2117.5 241.494 2113.5 237.35 2108.47 234.538C2103.59 231.726 2098.26 230.32 2092.49 230.32C2086.86 230.32 2081.54 231.8 2076.5 234.76C2071.62 237.572 2067.62 241.716 2064.52 247.192C2061.56 252.668 2060.08 259.106 2060.08 266.506C2060.08 273.906 2061.56 280.344 2064.52 285.82C2067.62 291.296 2071.62 295.514 2076.5 298.474C2081.54 301.286 2086.86 302.692 2092.49 302.692C2098.26 302.692 2103.59 301.212 2108.47 298.252C2113.5 295.292 2117.5 291.074 2120.46 285.598C2123.57 280.122 2125.12 273.61 2125.12 266.062Z" fill="#05A833"/>
<path d="M1167.92 250.3C1167.92 235.056 1171.32 221.44 1178.13 209.452C1185.09 197.316 1194.48 187.918 1206.32 181.258C1218.31 174.45 1231.71 171.046 1246.51 171.046C1263.82 171.046 1278.99 175.486 1292.02 184.366C1305.04 193.246 1314.14 205.53 1319.32 221.218H1283.58C1280.03 213.818 1275 208.268 1268.48 204.568C1262.12 200.868 1254.72 199.018 1246.28 199.018C1237.26 199.018 1229.19 201.164 1222.09 205.456C1215.13 209.6 1209.65 215.52 1205.66 223.216C1201.81 230.912 1199.89 239.94 1199.89 250.3C1199.89 260.512 1201.81 269.54 1205.66 277.384C1209.65 285.08 1215.13 291.074 1222.09 295.366C1229.19 299.51 1237.26 301.582 1246.28 301.582C1254.72 301.582 1262.12 299.732 1268.48 296.032C1275 292.184 1280.03 286.56 1283.58 279.16H1319.32C1314.14 294.996 1305.04 307.354 1292.02 316.234C1279.14 324.966 1263.97 329.332 1246.51 329.332C1231.71 329.332 1218.31 326.002 1206.32 319.342C1194.48 312.534 1185.09 303.136 1178.13 291.148C1171.32 279.16 1167.92 265.544 1167.92 250.3ZM1337.88 266.062C1337.88 253.63 1340.32 242.604 1345.2 232.984C1350.23 223.364 1356.97 215.964 1365.4 210.784C1373.99 205.604 1383.53 203.014 1394.04 203.014C1403.22 203.014 1411.21 204.864 1418.02 208.564C1424.97 212.264 1430.52 216.926 1434.67 222.55V205.012H1465.97V328H1434.67V310.018C1430.67 315.79 1425.12 320.6 1418.02 324.448C1411.06 328.148 1403 329.998 1393.82 329.998C1383.46 329.998 1373.99 327.334 1365.4 322.006C1356.97 316.678 1350.23 309.204 1345.2 299.584C1340.32 289.816 1337.88 278.642 1337.88 266.062ZM1434.67 266.506C1434.67 258.958 1433.19 252.52 1430.23 247.192C1427.27 241.716 1423.27 237.572 1418.24 234.76C1413.21 231.8 1407.81 230.32 1402.03 230.32C1396.26 230.32 1390.93 231.726 1386.05 234.538C1381.17 237.35 1377.17 241.494 1374.06 246.97C1371.1 252.298 1369.62 258.662 1369.62 266.062C1369.62 273.462 1371.1 279.974 1374.06 285.598C1377.17 291.074 1381.17 295.292 1386.05 298.252C1391.08 301.212 1396.41 302.692 1402.03 302.692C1407.81 302.692 1413.21 301.286 1418.24 298.474C1423.27 295.514 1427.27 291.37 1430.23 286.042C1433.19 280.566 1434.67 274.054 1434.67 266.506ZM1527.41 224.104C1531.4 217.592 1536.58 212.486 1542.95 208.786C1549.46 205.086 1556.86 203.236 1565.15 203.236V235.87H1556.93C1547.16 235.87 1539.76 238.164 1534.73 242.752C1529.85 247.34 1527.41 255.332 1527.41 266.728V328H1496.33V205.012H1527.41V224.104ZM1700.41 263.842C1700.41 268.282 1700.11 272.278 1699.52 275.83H1609.61C1610.35 284.71 1613.46 291.666 1618.94 296.698C1624.41 301.73 1631.15 304.246 1639.14 304.246C1650.68 304.246 1658.9 299.288 1663.78 289.372H1697.3C1693.75 301.212 1686.94 310.98 1676.88 318.676C1666.81 326.224 1654.46 329.998 1639.8 329.998C1627.96 329.998 1617.31 327.408 1607.84 322.228C1598.51 316.9 1591.19 309.426 1585.86 299.806C1580.68 290.186 1578.09 279.086 1578.09 266.506C1578.09 253.778 1580.68 242.604 1585.86 232.984C1591.04 223.364 1598.29 215.964 1607.61 210.784C1616.94 205.604 1627.67 203.014 1639.8 203.014C1651.5 203.014 1661.93 205.53 1671.11 210.562C1680.43 215.594 1687.61 222.772 1692.64 232.096C1697.82 241.272 1700.41 251.854 1700.41 263.842ZM1668.22 254.962C1668.07 246.97 1665.19 240.606 1659.56 235.87C1653.94 230.986 1647.06 228.544 1638.92 228.544C1631.22 228.544 1624.71 230.912 1619.38 235.648C1614.2 240.236 1611.02 246.674 1609.83 254.962H1668.22Z" fill="white"/>
</svg>
