<svg width="500" height="500" viewBox="0 0 500 500" fill="none" xmlns="http://www.w3.org/2000/svg">
<rect width="500" height="500" rx="50" fill="#05A833"/>
<path d="M111 388.083C111 344.333 137.979 309.917 185.083 300.583C220.375 293.583 256.833 271.417 271.417 256.833M242.25 373.5C216.643 373.578 191.941 364.028 173.045 346.746C154.149 329.463 142.438 305.71 140.236 280.197C138.033 254.685 145.5 229.276 161.154 209.011C176.809 188.746 199.508 175.104 224.75 170.792C307.875 154.75 329.75 147.167 358.917 111C373.5 140.167 388.083 171.958 388.083 227.667C388.083 307.875 318.375 373.5 242.25 373.5Z" stroke="white" stroke-width="28" stroke-linecap="round" stroke-linejoin="round"/>
</svg>
